<svg version="1.1" xmlns="http://www.w3.org/2000/svg" xmlns:xlink="http://www.w3.org/1999/xlink" width="18px" height="18px" viewBox="0,0,256,256"><g fill="currentColor" fill-rule="nonzero" stroke="none" stroke-width="1" stroke-linecap="butt" stroke-linejoin="miter" stroke-miterlimit="10" stroke-dasharray="" stroke-dashoffset="0" font-family="none" font-weight="none" font-size="none" text-anchor="none" style="mix-blend-mode: normal"><g transform="scale(9.84615,9.84615)"><path d="M13.1875,0c-0.82812,0.08594 -1.42969,0.82813 -1.34375,1.65625c0.08594,0.82813 0.82813,1.42969 1.65625,1.34375c2.16406,0 2.89453,0.58594 3.21875,0.96875c0.30859,0.36719 0.28125,0.51563 0.28125,0.53125v0.03125v3.15625c-0.05859,0.19531 -0.05859,0.39844 0,0.59375v9.53125c-0.02734,0.13281 -0.02734,0.27344 0,0.40625v3.28125c0,0 0.02344,0.16406 -0.28125,0.53125c-0.30469,0.36719 -1.00781,0.96875 -3.21875,0.96875c-0.53906,-0.00781 -1.04297,0.27734 -1.31641,0.74219c-0.27344,0.46875 -0.27344,1.04688 0,1.51563c0.27344,0.46484 0.77734,0.75 1.31641,0.74219c2.36719,0 3.98047,-0.65234 5,-1.53125c1.01953,0.87891 2.63281,1.53125 5,1.53125c0.53906,0.00781 1.04297,-0.27734 1.31641,-0.74219c0.27344,-0.46875 0.27344,-1.04687 0,-1.51562c-0.27344,-0.46484 -0.77734,-0.75 -1.31641,-0.74219c-2.21094,0 -2.91406,-0.60156 -3.21875,-0.96875c-0.30469,-0.36719 -0.28125,-0.53125 -0.28125,-0.53125v-2.5h5c0.55078,0 1,-0.44922 1,-1v-10c0,-0.55078 -0.44922,-1 -1,-1h-5v-2.5c0,-0.01172 0,-0.01953 0,-0.03125c-0.00391,-0.04297 0.00781,-0.17578 0.28125,-0.5c0.32422,-0.38281 1.05469,-0.96875 3.21875,-0.96875c0.53906,0.00781 1.04297,-0.27734 1.31641,-0.74219c0.27344,-0.46875 0.27344,-1.04687 0,-1.51562c-0.27344,-0.46484 -0.77734,-0.75 -1.31641,-0.74219c-2.35937,0 -3.98047,0.67578 -5,1.5625c-1.01953,-0.88672 -2.64062,-1.5625 -5,-1.5625c-0.05078,-0.00391 -0.10547,-0.00391 -0.15625,0c-0.05078,-0.00391 -0.10547,-0.00391 -0.15625,0zM0.8125,7c-0.47656,0.08984 -0.82031,0.51172 -0.8125,1v10c0,0.55078 0.44922,1 1,1h14v-2h-13v-8h13v-2h-14c-0.03125,0 -0.0625,0 -0.09375,0c-0.03125,0 -0.0625,0 -0.09375,0zM20,9h4v8h-4zM4,11v4h9v-4z"></path></g></g></svg>