<svg xmlns="http://www.w3.org/2000/svg" version="1.1" xmlns:xlink="http://www.w3.org/1999/xlink" xmlns:svgjs="http://svgjs.com/svgjs" width="24" height="24" x="0" y="0" viewBox="0 0 511 511.999" style="enable-background:new 0 0 512 512" xml:space="preserve" class=""><g><path d="M388.68 457.465 278.695 301.453l58.008-48.77a15.03 15.03 0 0 0 5.254-9.8l8.016-71.133a14.998 14.998 0 0 0-2.02-9.363L255.503 7.32A15 15 0 0 0 238.208.664L186.98 16.43c-.207.062-.414.125-.617.191L70.683 52.223a15 15 0 0 0-10.425 12.136L.664 466.47c-1.215 8.195 4.445 15.824 12.64 17.039l108.305 16.05a14.992 14.992 0 0 0 11.137-2.79 15.002 15.002 0 0 0 5.902-9.846l14.454-97.516 174.613 119.957a14.973 14.973 0 0 0 8.492 2.637c3.23 0 6.453-1.04 9.14-3.105L385.56 478c6.378-4.898 7.757-13.96 3.12-20.535zM254.016 283.008l-57.828-8.57 120.5-75.211-3.875 34.343zm-66.352-126.832 55.707 53.445-70.113 43.762zM235.77 32.805l78.89 132.32-45.039 28.113-.023-.023-76.54-73.442 11.465-77.355zM88.547 78.113l84.2-25.914-31.724 214.063-78.632-11.653zm22.625 389.57-78.633-11.652 25.453-171.746 78.633 11.653zm224.543 10.778L157.996 356.375l8.305-56.04 83.64 12.395 105.926 150.254zm0 0" fill="#187acb" data-original="#000000" class="" opacity="1"></path></g></svg>